<svg width="88" height="85" viewBox="0 0 88 85" fill="none" xmlns="http://www.w3.org/2000/svg">
<rect x="1.5" y="1.5" width="85" height="82" rx="9.5" fill="white" stroke="black" stroke-width="3"/>
<path d="M77 43.1895C77 25.9641 62.673 12 45 12C27.327 12 13 25.9639 13 43.1895C13 58.7569 24.702 71.6603 40 74V52.2052H31.875V43.1895H40V36.318C40 28.5012 44.7775 24.1834 52.0868 24.1834C55.588 24.1834 59.25 24.7925 59.25 24.7925V32.4681H55.215C51.2395 32.4681 50 34.8723 50 37.339V43.1895H58.875L57.4562 52.2052H50V74C65.298 71.6603 77 58.7571 77 43.1895Z" fill="#1877F2"/>
</svg>
