<svg width="67" height="48" viewBox="0 0 67 48" fill="none" xmlns="http://www.w3.org/2000/svg">
<path d="M3.72222 48C2.66759 48 1.78419 47.616 1.072 46.848C0.357334 46.0827 0 45.1333 0 44C0 42.8667 0.357334 41.9173 1.072 41.152C1.78419 40.384 2.66759 40 3.72222 40H63.2778C64.3324 40 65.2158 40.384 65.928 41.152C66.6427 41.9173 67 42.8667 67 44C67 45.1333 66.6427 46.0827 65.928 46.848C65.2158 47.616 64.3324 48 63.2778 48H3.72222ZM3.72222 28C2.66759 28 1.78419 27.616 1.072 26.848C0.357334 26.0827 0 25.1333 0 24C0 22.8667 0.357334 21.916 1.072 21.148C1.78419 20.3827 2.66759 20 3.72222 20H63.2778C64.3324 20 65.2158 20.3827 65.928 21.148C66.6427 21.916 67 22.8667 67 24C67 25.1333 66.6427 26.0827 65.928 26.848C65.2158 27.616 64.3324 28 63.2778 28H3.72222ZM3.72222 8C2.66759 8 1.78419 7.61733 1.072 6.852C0.357334 6.084 0 5.13333 0 4C0 2.86667 0.357334 1.916 1.072 1.148C1.78419 0.382667 2.66759 0 3.72222 0H63.2778C64.3324 0 65.2158 0.382667 65.928 1.148C66.6427 1.916 67 2.86667 67 4C67 5.13333 66.6427 6.084 65.928 6.852C65.2158 7.61733 64.3324 8 63.2778 8H3.72222Z" fill="white"/>
</svg>
