<svg width="80" height="79" viewBox="0 0 80 79" fill="none" xmlns="http://www.w3.org/2000/svg">
<path d="M66.88 50.9405C68.28 47.2837 69.04 43.3688 69.04 39.0666C69.04 35.9691 68.6 33.0006 67.84 30.2473C65.24 30.8926 62.52 31.2367 59.68 31.2367C53.8639 31.2435 48.1315 29.7461 42.9661 26.871C37.8007 23.9959 33.3537 19.8273 30 14.7166C26.4124 24.0529 19.6445 31.5629 11.08 35.711C10.92 36.7865 10.92 37.9481 10.92 39.0666C10.92 43.1739 11.6722 47.241 13.1336 51.0356C14.595 54.8303 16.737 58.2782 19.4373 61.1825C24.8909 67.0479 32.2875 70.3431 40 70.3431C44.2 70.3431 48.24 69.3536 51.88 67.5898C54.16 72.2791 55.2 74.6022 55.12 74.6022C48.56 76.9684 43.48 78.13 40 78.13C30.32 78.13 21.08 74.043 14.28 66.6863C10.144 62.2516 7.06948 56.8043 5.32 50.8114H0V31.2367H4.36C5.68097 24.3211 8.71797 17.9191 13.1488 12.71C17.5795 7.5009 23.2388 3.67903 29.5261 1.64993C35.8134 -0.379161 42.4941 -0.539793 48.8595 1.18508C55.2248 2.90996 61.0372 6.456 65.68 11.4469C70.7209 16.8472 74.1592 23.7343 75.56 31.2367H80V50.8114H79.76L65.52 64.8794L44.32 62.2981V55.1136H63.64L66.88 50.9405ZM29.08 38.0771C30.28 38.0771 31.44 38.5934 32.28 39.5399C33.1242 40.4552 33.5979 41.6923 33.5979 42.9816C33.5979 44.2709 33.1242 45.5079 32.28 46.4233C31.44 47.3267 30.28 47.843 29.08 47.843C26.56 47.843 24.52 45.6919 24.52 42.9816C24.52 40.2712 26.56 38.0771 29.08 38.0771ZM50.88 38.0771C53.4 38.0771 55.4 40.2712 55.4 42.9816C55.4 45.6919 53.4 47.843 50.88 47.843C48.36 47.843 46.32 45.6919 46.32 42.9816C46.32 41.6808 46.8004 40.4334 47.6556 39.5136C48.5108 38.5938 49.6706 38.0771 50.88 38.0771Z" fill="black"/>
</svg>
