<svg width="26" height="26" viewBox="0 0 26 26" fill="none" xmlns="http://www.w3.org/2000/svg">
<path d="M23.6372 25.6055L18.0713 20.0303C17.1962 20.79 16.1752 21.3817 15.0083 21.8054C13.8415 22.2291 12.6018 22.4409 11.2891 22.4409C8.13864 22.4409 5.46951 21.3451 3.28171 19.1537C1.0939 16.9622 0 14.3178 0 11.2204C0 8.12314 1.0939 5.47873 3.28171 3.28724C5.46951 1.09575 8.12405 0 11.2453 0C14.3374 0 16.9701 1.09575 19.1433 3.28724C21.3165 5.47873 22.4031 8.12314 22.4031 11.2204C22.4031 12.4769 22.1989 13.6895 21.7905 14.8583C21.3822 16.0271 20.7696 17.1229 19.9528 18.1456L25.6062 23.7208C25.8687 23.9546 26 24.2541 26 24.6194C26 24.9846 25.8541 25.3133 25.5624 25.6055C25.2999 25.8685 24.979 26 24.5998 26C24.2206 26 23.8997 25.8685 23.6372 25.6055ZM11.2453 19.8111C13.6082 19.8111 15.6209 18.971 17.2837 17.2909C18.9464 15.6107 19.7778 13.5873 19.7778 11.2204C19.7778 8.85364 18.9464 6.83016 17.2837 5.15001C15.6209 3.46987 13.6082 2.62979 11.2453 2.62979C8.85332 2.62979 6.81866 3.46987 5.14134 5.15001C3.46403 6.83016 2.62537 8.85364 2.62537 11.2204C2.62537 13.5873 3.46403 15.6107 5.14134 17.2909C6.81866 18.971 8.85332 19.8111 11.2453 19.8111Z" fill="#ADADAD"/>
</svg>
