<svg width="88" height="85" viewBox="0 0 88 85" fill="none" xmlns="http://www.w3.org/2000/svg">
<rect x="1.5" y="1.5" width="85" height="82" rx="9.5" fill="white" stroke="black" stroke-width="3"/>
<path d="M72 24.5638C69.9405 25.5231 67.7559 26.1529 65.519 26.432C67.849 24.9636 69.638 22.6383 70.4804 19.8677C68.2655 21.2498 65.8422 22.2236 63.3152 22.747C61.2567 20.4411 58.3243 19 55.0787 19C48.8469 19 43.7945 24.3125 43.7945 30.8649C43.7945 31.795 43.8944 32.7004 44.0866 33.569C34.7087 33.0741 26.3943 28.3505 20.8287 21.1719C19.8576 22.9243 19.3012 24.9627 19.3012 27.1369C19.3012 31.2534 21.2934 34.885 24.321 37.0128C22.5291 36.9538 20.7766 36.4449 19.2099 35.5286C19.2092 35.5783 19.2092 35.628 19.2092 35.6779C19.2092 41.4267 23.0988 46.2223 28.2606 47.3124C26.599 47.7876 24.856 47.8571 23.1649 47.5157C24.6007 52.2296 28.7681 55.6598 33.7056 55.7558C29.8438 58.938 24.9782 60.835 19.6918 60.835C18.7808 60.835 17.8828 60.7787 17 60.6692C21.9936 64.0357 27.9248 66 34.2971 66C55.0525 66 66.402 47.9201 66.402 32.2409C66.402 31.7263 66.3913 31.2146 66.3694 30.7058C68.5785 29.0266 70.4852 26.9467 72 24.5638Z" fill="#55ACEE"/>
</svg>
